<mxfile host="app.diagrams.net" modified="2021-05-02T17:31:47.950Z" agent="5.0 (Windows NT 6.1; Win64; x64) AppleWebKit/537.36 (KHTML, like Gecko) Chrome/90.0.4430.93 Safari/537.36" etag="jwgF_Y99c7dqD-Razalx" version="14.6.9" type="github">
  <diagram name="Page-1" id="e7e014a7-5840-1c2e-5031-d8a46d1fe8dd">
    <mxGraphModel dx="1422" dy="762" grid="1" gridSize="10" guides="1" tooltips="1" connect="1" arrows="1" fold="1" page="1" pageScale="1" pageWidth="1169" pageHeight="826" background="#ffffff" math="0" shadow="0">
      <root>
        <mxCell id="0" />
        <mxCell id="1" parent="0" />
        <mxCell id="2" value="Педагогический работник" style="swimlane;whiteSpace=wrap" parent="1" vertex="1">
          <mxGeometry x="50" y="128" width="430" height="2320" as="geometry" />
        </mxCell>
        <mxCell id="Ka7XM5IuNzu1x7Nwei8n-47" value="" style="ellipse;html=1;shape=startState;fillColor=#000000;strokeColor=#ff0000;" parent="2" vertex="1">
          <mxGeometry x="170" y="52" width="30" height="30" as="geometry" />
        </mxCell>
        <mxCell id="Ka7XM5IuNzu1x7Nwei8n-49" value="Запрашивает возможность повышения категории" style="rounded=1;whiteSpace=wrap;html=1;arcSize=40;fontColor=#000000;fillColor=#ffffc0;strokeColor=#ff0000;" parent="2" vertex="1">
          <mxGeometry x="102.5" y="272" width="165" height="40" as="geometry" />
        </mxCell>
        <mxCell id="Ka7XM5IuNzu1x7Nwei8n-71" value="Осуществляет мониторинг ближайших мероприятий" style="rounded=1;whiteSpace=wrap;html=1;arcSize=40;fontColor=#000000;fillColor=#ffffc0;strokeColor=#ff0000;" parent="2" vertex="1">
          <mxGeometry y="922" width="150" height="42" as="geometry" />
        </mxCell>
        <mxCell id="Ka7XM5IuNzu1x7Nwei8n-73" value="" style="shape=line;html=1;strokeWidth=6;strokeColor=#ff0000;" parent="2" vertex="1">
          <mxGeometry x="35" y="792" width="200" height="10" as="geometry" />
        </mxCell>
        <mxCell id="Ka7XM5IuNzu1x7Nwei8n-74" value="" style="edgeStyle=orthogonalEdgeStyle;html=1;verticalAlign=bottom;endArrow=open;endSize=8;strokeColor=#ff0000;entryX=0.547;entryY=-0.024;entryDx=0;entryDy=0;entryPerimeter=0;exitX=0.25;exitY=0.5;exitDx=0;exitDy=0;exitPerimeter=0;" parent="2" source="Ka7XM5IuNzu1x7Nwei8n-73" target="Ka7XM5IuNzu1x7Nwei8n-71" edge="1">
          <mxGeometry relative="1" as="geometry">
            <mxPoint x="80" y="872" as="targetPoint" />
            <Array as="points">
              <mxPoint x="82" y="797" />
            </Array>
          </mxGeometry>
        </mxCell>
        <mxCell id="Ka7XM5IuNzu1x7Nwei8n-83" value="" style="shape=line;html=1;strokeWidth=6;strokeColor=#ff0000;" parent="2" vertex="1">
          <mxGeometry x="35" y="1132" width="200" height="10" as="geometry" />
        </mxCell>
        <mxCell id="Ka7XM5IuNzu1x7Nwei8n-84" value="" style="edgeStyle=orthogonalEdgeStyle;html=1;verticalAlign=bottom;endArrow=open;endSize=8;strokeColor=#ff0000;" parent="2" source="Ka7XM5IuNzu1x7Nwei8n-83" edge="1">
          <mxGeometry relative="1" as="geometry">
            <mxPoint x="135" y="1212" as="targetPoint" />
          </mxGeometry>
        </mxCell>
        <mxCell id="Ka7XM5IuNzu1x7Nwei8n-90" value="" style="edgeStyle=orthogonalEdgeStyle;html=1;verticalAlign=bottom;endArrow=open;endSize=8;strokeColor=#ff0000;entryX=0.45;entryY=0;entryDx=0;entryDy=0;entryPerimeter=0;" parent="2" target="Ka7XM5IuNzu1x7Nwei8n-85" edge="1">
          <mxGeometry relative="1" as="geometry">
            <mxPoint x="1000" y="692" as="targetPoint" />
            <mxPoint x="190" y="792" as="sourcePoint" />
            <Array as="points">
              <mxPoint x="190" y="872" />
              <mxPoint x="971" y="872" />
            </Array>
          </mxGeometry>
        </mxCell>
        <mxCell id="Ka7XM5IuNzu1x7Nwei8n-86" value="" style="edgeStyle=orthogonalEdgeStyle;html=1;verticalAlign=bottom;endArrow=open;endSize=8;strokeColor=#ff0000;exitX=0.25;exitY=1;exitDx=0;exitDy=0;entryX=0.25;entryY=0.5;entryDx=0;entryDy=0;entryPerimeter=0;" parent="2" source="Ka7XM5IuNzu1x7Nwei8n-71" target="Ka7XM5IuNzu1x7Nwei8n-83" edge="1">
          <mxGeometry relative="1" as="geometry">
            <mxPoint x="1030" y="1052" as="targetPoint" />
            <Array as="points">
              <mxPoint x="38" y="1052" />
              <mxPoint x="85" y="1052" />
            </Array>
          </mxGeometry>
        </mxCell>
        <mxCell id="Ka7XM5IuNzu1x7Nwei8n-94" value="Формирует личный план" style="rounded=1;whiteSpace=wrap;html=1;arcSize=40;fontColor=#000000;fillColor=#ffffc0;strokeColor=#ff0000;" parent="2" vertex="1">
          <mxGeometry x="75" y="1212" width="120" height="40" as="geometry" />
        </mxCell>
        <mxCell id="Ka7XM5IuNzu1x7Nwei8n-95" value="" style="edgeStyle=orthogonalEdgeStyle;html=1;verticalAlign=bottom;endArrow=open;endSize=8;strokeColor=#ff0000;" parent="2" source="Ka7XM5IuNzu1x7Nwei8n-94" edge="1">
          <mxGeometry relative="1" as="geometry">
            <mxPoint x="135" y="1312" as="targetPoint" />
          </mxGeometry>
        </mxCell>
        <mxCell id="Ka7XM5IuNzu1x7Nwei8n-99" value="Выполнение личного плана и внесение достижений" style="rounded=1;whiteSpace=wrap;html=1;arcSize=40;fontColor=#000000;fillColor=#ffffc0;strokeColor=#ff0000;" parent="2" vertex="1">
          <mxGeometry x="60" y="1312" width="140" height="58" as="geometry" />
        </mxCell>
        <mxCell id="Ka7XM5IuNzu1x7Nwei8n-108" value="Набрана необходимая сумма баллов" style="rhombus;whiteSpace=wrap;html=1;fillColor=#ffffc0;strokeColor=#ff0000;" parent="2" vertex="1">
          <mxGeometry x="60" y="1502" width="140" height="80" as="geometry" />
        </mxCell>
        <mxCell id="Ka7XM5IuNzu1x7Nwei8n-118" value="Корректирует план" style="rounded=1;whiteSpace=wrap;html=1;arcSize=50;fontColor=#000000;fillColor=#ffffc0;strokeColor=#ff0000;" parent="2" vertex="1">
          <mxGeometry x="70" y="1682" width="120" height="40" as="geometry" />
        </mxCell>
        <mxCell id="Ka7XM5IuNzu1x7Nwei8n-109" value="Нет" style="edgeStyle=orthogonalEdgeStyle;html=1;align=left;verticalAlign=bottom;endArrow=open;endSize=8;strokeColor=#ff0000;exitX=0.5;exitY=1;exitDx=0;exitDy=0;" parent="2" source="Ka7XM5IuNzu1x7Nwei8n-108" target="Ka7XM5IuNzu1x7Nwei8n-118" edge="1">
          <mxGeometry x="-0.8" y="-20" relative="1" as="geometry">
            <mxPoint x="130" y="1672" as="targetPoint" />
            <mxPoint as="offset" />
            <mxPoint x="180" y="1602" as="sourcePoint" />
            <Array as="points">
              <mxPoint x="130" y="1602" />
              <mxPoint x="130" y="1602" />
            </Array>
          </mxGeometry>
        </mxCell>
        <mxCell id="Ka7XM5IuNzu1x7Nwei8n-120" value="" style="edgeStyle=orthogonalEdgeStyle;html=1;verticalAlign=bottom;endArrow=open;endSize=8;strokeColor=#ff0000;exitX=0.5;exitY=1;exitDx=0;exitDy=0;entryX=0;entryY=0.5;entryDx=0;entryDy=0;" parent="2" source="Ka7XM5IuNzu1x7Nwei8n-118" target="Ka7XM5IuNzu1x7Nwei8n-94" edge="1">
          <mxGeometry relative="1" as="geometry">
            <mxPoint x="530" y="1582" as="targetPoint" />
            <mxPoint x="530" y="1522" as="sourcePoint" />
            <Array as="points">
              <mxPoint x="130" y="1762" />
              <mxPoint x="20" y="1762" />
              <mxPoint x="20" y="1232" />
            </Array>
          </mxGeometry>
        </mxCell>
        <mxCell id="Ka7XM5IuNzu1x7Nwei8n-97" value="" style="rounded=0;whiteSpace=wrap;html=1;" parent="2" vertex="1">
          <mxGeometry x="290" y="1132" width="120" height="60" as="geometry" />
        </mxCell>
        <mxCell id="Ka7XM5IuNzu1x7Nwei8n-96" value="" style="endArrow=none;dashed=1;html=1;dashPattern=1 3;strokeWidth=2;exitX=0.892;exitY=-0.05;exitDx=0;exitDy=0;exitPerimeter=0;" parent="2" source="Ka7XM5IuNzu1x7Nwei8n-94" target="Ka7XM5IuNzu1x7Nwei8n-97" edge="1">
          <mxGeometry width="50" height="50" relative="1" as="geometry">
            <mxPoint x="510" y="1072" as="sourcePoint" />
            <mxPoint x="280" y="1172" as="targetPoint" />
          </mxGeometry>
        </mxCell>
        <mxCell id="Ka7XM5IuNzu1x7Nwei8n-98" value="Краткосрочное планирование" style="text;html=1;strokeColor=none;fillColor=none;align=center;verticalAlign=middle;whiteSpace=wrap;rounded=0;" parent="2" vertex="1">
          <mxGeometry x="330" y="1152" width="40" height="20" as="geometry" />
        </mxCell>
        <mxCell id="Eb_XaTn5PS-OGBsIHi4d-4" value="планируется ли повышение категории в ближайщий год" style="rhombus;whiteSpace=wrap;html=1;fillColor=#ffffc0;strokeColor=#ff0000;" vertex="1" parent="2">
          <mxGeometry x="111.25" y="122" width="147.5" height="70" as="geometry" />
        </mxCell>
        <mxCell id="Eb_XaTn5PS-OGBsIHi4d-6" value="да" style="edgeStyle=orthogonalEdgeStyle;html=1;align=left;verticalAlign=top;endArrow=open;endSize=8;strokeColor=#ff0000;entryX=0.5;entryY=0;entryDx=0;entryDy=0;" edge="1" source="Eb_XaTn5PS-OGBsIHi4d-4" parent="2" target="Ka7XM5IuNzu1x7Nwei8n-49">
          <mxGeometry x="-1" y="-10" relative="1" as="geometry">
            <mxPoint x="182.5" y="252" as="targetPoint" />
            <mxPoint x="10" y="-10" as="offset" />
          </mxGeometry>
        </mxCell>
        <mxCell id="4" value="Методист учебного отдела" style="swimlane;whiteSpace=wrap" parent="1" vertex="1">
          <mxGeometry x="480" y="128" width="380" height="1742" as="geometry" />
        </mxCell>
        <mxCell id="Ka7XM5IuNzu1x7Nwei8n-51" value="&lt;div&gt;Запрашивает&lt;/div&gt;&lt;div&gt;состояние дел училища в части&amp;nbsp; квалификации пед.работников&lt;br&gt;&lt;/div&gt;" style="rounded=1;whiteSpace=wrap;html=1;arcSize=40;fontColor=#000000;fillColor=#ffffc0;strokeColor=#ff0000;" parent="4" vertex="1">
          <mxGeometry x="160" y="432" width="120" height="68" as="geometry" />
        </mxCell>
        <mxCell id="Ka7XM5IuNzu1x7Nwei8n-55" value="" style="shape=line;html=1;strokeWidth=6;strokeColor=#ff0000;" parent="4" vertex="1">
          <mxGeometry x="30" y="352" width="230" height="10" as="geometry" />
        </mxCell>
        <mxCell id="Ka7XM5IuNzu1x7Nwei8n-56" value="" style="edgeStyle=orthogonalEdgeStyle;html=1;verticalAlign=bottom;endArrow=open;endSize=8;strokeColor=#ff0000;exitX=0.222;exitY=0.3;exitDx=0;exitDy=0;exitPerimeter=0;entryX=0.5;entryY=0;entryDx=0;entryDy=0;" parent="4" source="Ka7XM5IuNzu1x7Nwei8n-55" target="Ka7XM5IuNzu1x7Nwei8n-59" edge="1">
          <mxGeometry relative="1" as="geometry">
            <mxPoint x="207" y="432" as="targetPoint" />
            <Array as="points">
              <mxPoint x="81" y="357" />
              <mxPoint x="80" y="357" />
            </Array>
          </mxGeometry>
        </mxCell>
        <mxCell id="Ka7XM5IuNzu1x7Nwei8n-59" value="Анализирует повестку училища, план ГУК" style="rounded=1;whiteSpace=wrap;html=1;arcSize=40;fontColor=#000000;fillColor=#ffffc0;strokeColor=#ff0000;" parent="4" vertex="1">
          <mxGeometry x="20" y="432" width="120" height="40" as="geometry" />
        </mxCell>
        <mxCell id="Ka7XM5IuNzu1x7Nwei8n-60" value="" style="edgeStyle=orthogonalEdgeStyle;html=1;verticalAlign=bottom;endArrow=open;endSize=8;strokeColor=#ff0000;" parent="4" source="Ka7XM5IuNzu1x7Nwei8n-59" edge="1">
          <mxGeometry relative="1" as="geometry">
            <mxPoint x="80" y="562" as="targetPoint" />
            <Array as="points">
              <mxPoint x="80" y="532" />
            </Array>
          </mxGeometry>
        </mxCell>
        <mxCell id="Ka7XM5IuNzu1x7Nwei8n-65" value="" style="shape=line;html=1;strokeWidth=6;strokeColor=#ff0000;" parent="4" vertex="1">
          <mxGeometry x="45" y="562" width="200" height="10" as="geometry" />
        </mxCell>
        <mxCell id="Ka7XM5IuNzu1x7Nwei8n-66" value="" style="edgeStyle=orthogonalEdgeStyle;html=1;verticalAlign=bottom;endArrow=open;endSize=8;strokeColor=#ff0000;" parent="4" source="Ka7XM5IuNzu1x7Nwei8n-65" edge="1">
          <mxGeometry relative="1" as="geometry">
            <mxPoint x="145" y="642" as="targetPoint" />
          </mxGeometry>
        </mxCell>
        <mxCell id="Ka7XM5IuNzu1x7Nwei8n-69" value="Формирует индивидуальную траекторию получения категории" style="rounded=1;whiteSpace=wrap;html=1;arcSize=40;fontColor=#000000;fillColor=#ffffc0;strokeColor=#ff0000;" parent="4" vertex="1">
          <mxGeometry x="57.5" y="642" width="175" height="48" as="geometry" />
        </mxCell>
        <mxCell id="Ka7XM5IuNzu1x7Nwei8n-112" value="Поиск аномалий" style="rounded=1;whiteSpace=wrap;html=1;arcSize=40;fontColor=#000000;fillColor=#ffffc0;strokeColor=#ff0000;" parent="4" vertex="1">
          <mxGeometry x="105" y="1292" width="120" height="40" as="geometry" />
        </mxCell>
        <mxCell id="Ka7XM5IuNzu1x7Nwei8n-116" value="Подтверждает количество баллов" style="rounded=1;whiteSpace=wrap;html=1;arcSize=40;fontColor=#000000;fillColor=#ffffc0;strokeColor=#ff0000;" parent="4" vertex="1">
          <mxGeometry x="105" y="1392" width="120" height="40" as="geometry" />
        </mxCell>
        <mxCell id="Ka7XM5IuNzu1x7Nwei8n-115" value="" style="edgeStyle=orthogonalEdgeStyle;html=1;verticalAlign=bottom;endArrow=open;endSize=8;strokeColor=#ff0000;entryX=0.5;entryY=0;entryDx=0;entryDy=0;exitX=0.5;exitY=1;exitDx=0;exitDy=0;" parent="4" source="Ka7XM5IuNzu1x7Nwei8n-112" target="Ka7XM5IuNzu1x7Nwei8n-116" edge="1">
          <mxGeometry relative="1" as="geometry">
            <mxPoint x="455" y="1392" as="targetPoint" />
            <Array as="points">
              <mxPoint x="165" y="1362" />
              <mxPoint x="165" y="1362" />
            </Array>
          </mxGeometry>
        </mxCell>
        <mxCell id="Ka7XM5IuNzu1x7Nwei8n-111" value="Формирует экспертное заключение" style="rounded=1;whiteSpace=wrap;html=1;arcSize=40;fontColor=#000000;fillColor=#ffffc0;strokeColor=#ff0000;" parent="4" vertex="1">
          <mxGeometry x="100" y="1522" width="120" height="40" as="geometry" />
        </mxCell>
        <mxCell id="Ka7XM5IuNzu1x7Nwei8n-121" value="Подтверждает выполненную работу" style="rounded=1;whiteSpace=wrap;html=1;arcSize=40;fontColor=#000000;fillColor=#ffffc0;strokeColor=#ff0000;" parent="4" vertex="1">
          <mxGeometry x="100" y="1602" width="120" height="40" as="geometry" />
        </mxCell>
        <mxCell id="Ka7XM5IuNzu1x7Nwei8n-124" value="" style="edgeStyle=orthogonalEdgeStyle;html=1;verticalAlign=bottom;endArrow=open;endSize=8;strokeColor=#ff0000;exitX=0.5;exitY=1;exitDx=0;exitDy=0;" parent="4" source="Ka7XM5IuNzu1x7Nwei8n-111" target="Ka7XM5IuNzu1x7Nwei8n-121" edge="1">
          <mxGeometry relative="1" as="geometry">
            <mxPoint x="-15" y="1572" as="targetPoint" />
            <mxPoint x="-15" y="1512" as="sourcePoint" />
          </mxGeometry>
        </mxCell>
        <mxCell id="Ka7XM5IuNzu1x7Nwei8n-125" value="" style="ellipse;html=1;shape=endState;fillColor=#000000;strokeColor=#ff0000;" parent="4" vertex="1">
          <mxGeometry x="145" y="1682" width="30" height="30" as="geometry" />
        </mxCell>
        <mxCell id="Ka7XM5IuNzu1x7Nwei8n-126" value="" style="edgeStyle=orthogonalEdgeStyle;html=1;verticalAlign=bottom;endArrow=open;endSize=8;strokeColor=#ff0000;" parent="4" source="Ka7XM5IuNzu1x7Nwei8n-121" target="Ka7XM5IuNzu1x7Nwei8n-125" edge="1">
          <mxGeometry relative="1" as="geometry">
            <mxPoint x="820" y="1780" as="targetPoint" />
            <mxPoint x="820" y="1720" as="sourcePoint" />
          </mxGeometry>
        </mxCell>
        <mxCell id="Ka7XM5IuNzu1x7Nwei8n-81" value="" style="rounded=0;whiteSpace=wrap;html=1;" parent="4" vertex="1">
          <mxGeometry x="180" y="732" width="120" height="60" as="geometry" />
        </mxCell>
        <mxCell id="Ka7XM5IuNzu1x7Nwei8n-82" value="Долгосрочное планирование" style="text;html=1;strokeColor=none;fillColor=none;align=center;verticalAlign=middle;whiteSpace=wrap;rounded=0;" parent="4" vertex="1">
          <mxGeometry x="220" y="752" width="40" height="20" as="geometry" />
        </mxCell>
        <mxCell id="Ka7XM5IuNzu1x7Nwei8n-80" value="" style="endArrow=none;dashed=1;html=1;entryX=0.25;entryY=1;entryDx=0;entryDy=0;" parent="4" source="Ka7XM5IuNzu1x7Nwei8n-81" target="Ka7XM5IuNzu1x7Nwei8n-69" edge="1">
          <mxGeometry width="50" height="50" relative="1" as="geometry">
            <mxPoint x="-30" y="582" as="sourcePoint" />
            <mxPoint x="-20" y="752" as="targetPoint" />
          </mxGeometry>
        </mxCell>
        <mxCell id="Eb_XaTn5PS-OGBsIHi4d-8" value="" style="edgeStyle=orthogonalEdgeStyle;html=1;verticalAlign=bottom;endArrow=open;endSize=8;strokeColor=#ff0000;" edge="1" parent="4" source="Ka7XM5IuNzu1x7Nwei8n-47">
          <mxGeometry relative="1" as="geometry">
            <mxPoint x="-245" y="122" as="targetPoint" />
            <Array as="points" />
            <mxPoint x="571.06" y="493" as="sourcePoint" />
          </mxGeometry>
        </mxCell>
        <mxCell id="Ka7XM5IuNzu1x7Nwei8n-41" value="ИС &quot;Портфолио педагогического работника&quot;" style="swimlane;whiteSpace=wrap" parent="1" vertex="1">
          <mxGeometry x="860" y="128" width="340" height="1682" as="geometry" />
        </mxCell>
        <mxCell id="Ka7XM5IuNzu1x7Nwei8n-53" value="Формирует статистику по квалификации сотрудников" style="rounded=1;whiteSpace=wrap;html=1;arcSize=40;fontColor=#000000;fillColor=#ffffc0;strokeColor=#ff0000;" parent="Ka7XM5IuNzu1x7Nwei8n-41" vertex="1">
          <mxGeometry x="90" y="437" width="140" height="58" as="geometry" />
        </mxCell>
        <mxCell id="Ka7XM5IuNzu1x7Nwei8n-68" value="" style="edgeStyle=orthogonalEdgeStyle;html=1;verticalAlign=bottom;endArrow=open;endSize=8;strokeColor=#ff0000;entryX=0.75;entryY=0.5;entryDx=0;entryDy=0;entryPerimeter=0;" parent="Ka7XM5IuNzu1x7Nwei8n-41" target="Ka7XM5IuNzu1x7Nwei8n-65" edge="1">
          <mxGeometry relative="1" as="geometry">
            <mxPoint x="159.5" y="555" as="targetPoint" />
            <mxPoint x="159.5" y="495" as="sourcePoint" />
            <Array as="points">
              <mxPoint x="160" y="522" />
              <mxPoint x="-185" y="522" />
            </Array>
          </mxGeometry>
        </mxCell>
        <mxCell id="Ka7XM5IuNzu1x7Nwei8n-85" value="Предлагает варианты выступлений" style="rounded=1;whiteSpace=wrap;html=1;arcSize=40;fontColor=#000000;fillColor=#ffffc0;strokeColor=#ff0000;" parent="Ka7XM5IuNzu1x7Nwei8n-41" vertex="1">
          <mxGeometry x="80" y="942" width="180" height="48" as="geometry" />
        </mxCell>
        <mxCell id="Ka7XM5IuNzu1x7Nwei8n-103" value="Определяет минимальный балл, необходимый для подачи заявления" style="text;html=1;strokeColor=none;fillColor=none;align=center;verticalAlign=middle;whiteSpace=wrap;rounded=0;" parent="Ka7XM5IuNzu1x7Nwei8n-41" vertex="1">
          <mxGeometry x="120" y="602" width="40" height="20" as="geometry" />
        </mxCell>
        <mxCell id="Ka7XM5IuNzu1x7Nwei8n-104" value="Учет достижений" style="rounded=1;whiteSpace=wrap;html=1;arcSize=40;fontColor=#000000;fillColor=#ffffc0;strokeColor=#ff0000;" parent="Ka7XM5IuNzu1x7Nwei8n-41" vertex="1">
          <mxGeometry x="60" y="1111" width="120" height="40" as="geometry" />
        </mxCell>
        <mxCell id="Ka7XM5IuNzu1x7Nwei8n-105" value="" style="edgeStyle=orthogonalEdgeStyle;html=1;verticalAlign=bottom;endArrow=open;endSize=8;strokeColor=#ff0000;" parent="Ka7XM5IuNzu1x7Nwei8n-41" source="Ka7XM5IuNzu1x7Nwei8n-104" edge="1">
          <mxGeometry relative="1" as="geometry">
            <mxPoint x="120" y="1211" as="targetPoint" />
          </mxGeometry>
        </mxCell>
        <mxCell id="Ka7XM5IuNzu1x7Nwei8n-106" value="Подсчет баллов" style="rounded=1;whiteSpace=wrap;html=1;arcSize=40;fontColor=#000000;fillColor=#ffffc0;strokeColor=#ff0000;" parent="Ka7XM5IuNzu1x7Nwei8n-41" vertex="1">
          <mxGeometry x="60" y="1212" width="120" height="40" as="geometry" />
        </mxCell>
        <mxCell id="Ka7XM5IuNzu1x7Nwei8n-102" value="" style="rounded=0;whiteSpace=wrap;html=1;fillColor=none;" parent="Ka7XM5IuNzu1x7Nwei8n-41" vertex="1">
          <mxGeometry x="80" y="562" width="120" height="118" as="geometry" />
        </mxCell>
        <mxCell id="Eb_XaTn5PS-OGBsIHi4d-9" value="Добавляет достижения" style="rounded=1;whiteSpace=wrap;html=1;arcSize=40;fontColor=#000000;fillColor=#ffffc0;strokeColor=#ff0000;" vertex="1" parent="Ka7XM5IuNzu1x7Nwei8n-41">
          <mxGeometry x="100" y="222" width="120" height="40" as="geometry" />
        </mxCell>
        <mxCell id="Eb_XaTn5PS-OGBsIHi4d-10" value="Достаточно ли баллов" style="rhombus;whiteSpace=wrap;html=1;fillColor=#ffffc0;strokeColor=#ff0000;" vertex="1" parent="Ka7XM5IuNzu1x7Nwei8n-41">
          <mxGeometry x="90" y="300" width="140" height="70" as="geometry" />
        </mxCell>
        <mxCell id="Eb_XaTn5PS-OGBsIHi4d-11" value="no" style="edgeStyle=orthogonalEdgeStyle;html=1;align=left;verticalAlign=bottom;endArrow=open;endSize=8;strokeColor=#ff0000;exitX=1;exitY=0.5;exitDx=0;exitDy=0;entryX=1;entryY=0.5;entryDx=0;entryDy=0;" edge="1" source="Eb_XaTn5PS-OGBsIHi4d-10" parent="Ka7XM5IuNzu1x7Nwei8n-41" target="Eb_XaTn5PS-OGBsIHi4d-9">
          <mxGeometry x="-0.5873" relative="1" as="geometry">
            <mxPoint x="290" y="332" as="targetPoint" />
            <Array as="points">
              <mxPoint x="230" y="332" />
              <mxPoint x="290" y="332" />
              <mxPoint x="290" y="242" />
            </Array>
            <mxPoint as="offset" />
          </mxGeometry>
        </mxCell>
        <mxCell id="Eb_XaTn5PS-OGBsIHi4d-13" value="" style="edgeStyle=orthogonalEdgeStyle;html=1;verticalAlign=bottom;endArrow=open;endSize=8;strokeColor=#ff0000;exitX=0.5;exitY=1;exitDx=0;exitDy=0;" edge="1" parent="Ka7XM5IuNzu1x7Nwei8n-41" source="Eb_XaTn5PS-OGBsIHi4d-9">
          <mxGeometry relative="1" as="geometry">
            <mxPoint x="160" y="303" as="targetPoint" />
            <Array as="points">
              <mxPoint x="160" y="303" />
            </Array>
            <mxPoint x="191.05999999999995" y="493" as="sourcePoint" />
          </mxGeometry>
        </mxCell>
        <mxCell id="Ka7XM5IuNzu1x7Nwei8n-52" value="" style="edgeStyle=orthogonalEdgeStyle;html=1;verticalAlign=bottom;endArrow=open;endSize=8;strokeColor=#ff0000;entryX=0;entryY=0.5;entryDx=0;entryDy=0;" parent="1" source="Ka7XM5IuNzu1x7Nwei8n-51" target="Ka7XM5IuNzu1x7Nwei8n-53" edge="1">
          <mxGeometry relative="1" as="geometry">
            <mxPoint x="790" y="550" as="targetPoint" />
          </mxGeometry>
        </mxCell>
        <mxCell id="Ka7XM5IuNzu1x7Nwei8n-58" value="" style="edgeStyle=orthogonalEdgeStyle;html=1;verticalAlign=bottom;endArrow=open;endSize=8;strokeColor=#ff0000;exitX=0.913;exitY=0.7;exitDx=0;exitDy=0;exitPerimeter=0;" parent="1" source="Ka7XM5IuNzu1x7Nwei8n-55" edge="1">
          <mxGeometry relative="1" as="geometry">
            <mxPoint x="718" y="560" as="targetPoint" />
            <Array as="points">
              <mxPoint x="720" y="485" />
              <mxPoint x="718" y="485" />
            </Array>
          </mxGeometry>
        </mxCell>
        <mxCell id="Ka7XM5IuNzu1x7Nwei8n-70" value="" style="edgeStyle=orthogonalEdgeStyle;html=1;verticalAlign=bottom;endArrow=open;endSize=8;strokeColor=#ff0000;exitX=0;exitY=0.5;exitDx=0;exitDy=0;" parent="1" source="Ka7XM5IuNzu1x7Nwei8n-69" target="Ka7XM5IuNzu1x7Nwei8n-73" edge="1">
          <mxGeometry relative="1" as="geometry">
            <mxPoint x="490" y="634" as="targetPoint" />
            <Array as="points">
              <mxPoint x="185" y="794" />
            </Array>
          </mxGeometry>
        </mxCell>
        <mxCell id="Ka7XM5IuNzu1x7Nwei8n-79" value="" style="edgeStyle=orthogonalEdgeStyle;html=1;verticalAlign=bottom;endArrow=open;endSize=8;strokeColor=#ff0000;exitX=0;exitY=0.5;exitDx=0;exitDy=0;" parent="1" source="Ka7XM5IuNzu1x7Nwei8n-85" target="Ka7XM5IuNzu1x7Nwei8n-83" edge="1">
          <mxGeometry relative="1" as="geometry">
            <mxPoint x="490" y="1065" as="targetPoint" />
            <mxPoint x="1070" y="970" as="sourcePoint" />
            <Array as="points">
              <mxPoint x="940" y="1090" />
              <mxPoint x="240" y="1090" />
            </Array>
          </mxGeometry>
        </mxCell>
        <mxCell id="Ka7XM5IuNzu1x7Nwei8n-101" value="" style="endArrow=none;dashed=1;html=1;dashPattern=1 3;strokeWidth=2;entryX=0.75;entryY=0;entryDx=0;entryDy=0;exitX=-0.008;exitY=0.398;exitDx=0;exitDy=0;exitPerimeter=0;" parent="1" source="Ka7XM5IuNzu1x7Nwei8n-102" target="Ka7XM5IuNzu1x7Nwei8n-69" edge="1">
          <mxGeometry width="50" height="50" relative="1" as="geometry">
            <mxPoint x="970" y="740" as="sourcePoint" />
            <mxPoint x="620" y="860" as="targetPoint" />
          </mxGeometry>
        </mxCell>
        <mxCell id="Ka7XM5IuNzu1x7Nwei8n-100" value="" style="edgeStyle=orthogonalEdgeStyle;html=1;verticalAlign=bottom;endArrow=open;endSize=8;strokeColor=#ff0000;entryX=0;entryY=0.5;entryDx=0;entryDy=0;" parent="1" source="Ka7XM5IuNzu1x7Nwei8n-99" target="Ka7XM5IuNzu1x7Nwei8n-104" edge="1">
          <mxGeometry relative="1" as="geometry">
            <mxPoint x="180" y="1330" as="targetPoint" />
            <Array as="points">
              <mxPoint x="520" y="1469" />
              <mxPoint x="520" y="1259" />
            </Array>
          </mxGeometry>
        </mxCell>
        <mxCell id="Ka7XM5IuNzu1x7Nwei8n-107" value="" style="edgeStyle=orthogonalEdgeStyle;html=1;verticalAlign=bottom;endArrow=open;endSize=8;strokeColor=#ff0000;entryX=0.5;entryY=0;entryDx=0;entryDy=0;" parent="1" source="Ka7XM5IuNzu1x7Nwei8n-106" target="Ka7XM5IuNzu1x7Nwei8n-112" edge="1">
          <mxGeometry relative="1" as="geometry">
            <mxPoint x="1040" y="1440" as="targetPoint" />
          </mxGeometry>
        </mxCell>
        <mxCell id="Ka7XM5IuNzu1x7Nwei8n-117" value="" style="edgeStyle=orthogonalEdgeStyle;html=1;verticalAlign=bottom;endArrow=open;endSize=8;strokeColor=#ff0000;entryX=0.457;entryY=0;entryDx=0;entryDy=0;entryPerimeter=0;" parent="1" source="Ka7XM5IuNzu1x7Nwei8n-116" target="Ka7XM5IuNzu1x7Nwei8n-108" edge="1">
          <mxGeometry relative="1" as="geometry">
            <mxPoint x="500" y="1620" as="targetPoint" />
          </mxGeometry>
        </mxCell>
        <mxCell id="Ka7XM5IuNzu1x7Nwei8n-110" value="Да" style="edgeStyle=orthogonalEdgeStyle;html=1;align=left;verticalAlign=top;endArrow=open;endSize=8;strokeColor=#ff0000;exitX=1;exitY=0.5;exitDx=0;exitDy=0;entryX=0;entryY=0.5;entryDx=0;entryDy=0;" parent="1" source="Ka7XM5IuNzu1x7Nwei8n-108" target="Ka7XM5IuNzu1x7Nwei8n-111" edge="1">
          <mxGeometry x="-1" relative="1" as="geometry">
            <mxPoint x="170" y="1500" as="targetPoint" />
            <Array as="points">
              <mxPoint x="560" y="1670" />
              <mxPoint x="560" y="1670" />
            </Array>
          </mxGeometry>
        </mxCell>
        <mxCell id="beR3VG5LFJaJLYyRmvLv-4" value="&lt;font style=&quot;font-size: 24px&quot;&gt;Общий бизнес-процесс повышения квалификации педагогического сотрудника (to be)&lt;/font&gt;" style="text;html=1;strokeColor=none;fillColor=none;align=center;verticalAlign=middle;whiteSpace=wrap;rounded=0;" parent="1" vertex="1">
          <mxGeometry x="390" y="50" width="580" height="20" as="geometry" />
        </mxCell>
        <mxCell id="Eb_XaTn5PS-OGBsIHi4d-7" value="" style="edgeStyle=orthogonalEdgeStyle;html=1;verticalAlign=bottom;endArrow=open;endSize=8;strokeColor=#ff0000;exitX=1;exitY=0.5;exitDx=0;exitDy=0;entryX=0.617;entryY=0.2;entryDx=0;entryDy=0;entryPerimeter=0;" edge="1" parent="1" source="Ka7XM5IuNzu1x7Nwei8n-49" target="Ka7XM5IuNzu1x7Nwei8n-55">
          <mxGeometry relative="1" as="geometry">
            <mxPoint x="630" y="280" as="targetPoint" />
            <Array as="points">
              <mxPoint x="652" y="420" />
            </Array>
            <mxPoint x="1041.06" y="461" as="sourcePoint" />
          </mxGeometry>
        </mxCell>
        <mxCell id="Eb_XaTn5PS-OGBsIHi4d-5" value="нет" style="edgeStyle=orthogonalEdgeStyle;html=1;align=left;verticalAlign=bottom;endArrow=open;endSize=8;strokeColor=#ff0000;exitX=1;exitY=0.5;exitDx=0;exitDy=0;" edge="1" source="Eb_XaTn5PS-OGBsIHi4d-4" parent="1" target="Eb_XaTn5PS-OGBsIHi4d-9">
          <mxGeometry x="-0.9439" relative="1" as="geometry">
            <mxPoint x="1020" y="420" as="targetPoint" />
            <Array as="points">
              <mxPoint x="1020" y="287" />
            </Array>
            <mxPoint as="offset" />
          </mxGeometry>
        </mxCell>
        <mxCell id="Eb_XaTn5PS-OGBsIHi4d-12" value="yes" style="edgeStyle=orthogonalEdgeStyle;html=1;align=left;verticalAlign=top;endArrow=open;endSize=8;strokeColor=#ff0000;entryX=0.75;entryY=0;entryDx=0;entryDy=0;" edge="1" source="Eb_XaTn5PS-OGBsIHi4d-10" parent="1" target="Ka7XM5IuNzu1x7Nwei8n-49">
          <mxGeometry x="-0.9746" relative="1" as="geometry">
            <mxPoint x="1020" y="530" as="targetPoint" />
            <Array as="points">
              <mxPoint x="880" y="463" />
              <mxPoint x="880" y="340" />
              <mxPoint x="276" y="340" />
            </Array>
            <mxPoint as="offset" />
          </mxGeometry>
        </mxCell>
      </root>
    </mxGraphModel>
  </diagram>
</mxfile>
